<?xml version="1.0" standalone="no"?>
<!DOCTYPE svg PUBLIC "-//W3C//DTD SVG 20010904//EN"
 "http://www.w3.org/TR/2001/REC-SVG-20010904/DTD/svg10.dtd">
<svg version="1.0" xmlns="http://www.w3.org/2000/svg"
 width="1164.000000pt" height="1164.000000pt" viewBox="0 0 1164.000000 1164.000000"
 preserveAspectRatio="xMidYMid meet">
<metadata>
Created by potrace 1.14, written by Peter Selinger 2001-2017
</metadata>
<g transform="translate(0.000000,1164.000000) scale(0.100000,-0.100000)"
fill="#000000" stroke="none">
<path d="M5528 11525 c-1 -2 -50 -6 -108 -10 -135 -8 -258 -20 -310 -30 -8 -1
-42 -6 -75 -10 -61 -8 -69 -9 -140 -20 -256 -40 -774 -171 -913 -231 -18 -8
-37 -14 -42 -14 -5 0 -21 -5 -37 -12 -15 -6 -32 -12 -38 -13 -5 -2 -90 -35
-188 -75 -200 -81 -496 -225 -668 -325 -63 -37 -130 -76 -149 -87 -74 -43
-311 -205 -435 -298 -888 -666 -1563 -1575 -1942 -2620 -51 -139 -144 -449
-169 -560 -4 -19 -8 -37 -9 -40 -1 -3 -4 -18 -8 -35 -16 -68 -64 -308 -71
-360 -4 -23 -8 -50 -10 -60 -3 -18 -15 -100 -21 -150 -2 -11 -6 -47 -10 -80
-3 -33 -8 -73 -10 -90 -26 -198 -26 -942 -1 -1082 2 -10 7 -49 10 -88 4 -38
14 -113 21 -165 8 -52 17 -115 20 -140 3 -25 8 -52 10 -60 2 -8 7 -31 10 -50
9 -53 65 -306 86 -388 105 -411 313 -934 511 -1287 25 -44 57 -102 73 -130
127 -226 441 -673 570 -811 5 -6 37 -42 70 -80 362 -414 805 -789 1294 -1094
88 -54 100 -61 246 -143 513 -285 1104 -493 1735 -612 8 -1 37 -6 63 -9 27 -4
59 -9 70 -12 29 -6 62 -10 182 -24 55 -6 114 -13 130 -15 196 -26 944 -26
1083 -1 9 2 51 7 92 11 41 4 84 9 95 11 11 2 40 6 65 9 25 3 56 8 70 10 14 3
43 7 65 11 116 16 296 54 490 104 377 96 713 220 1070 395 253 125 408 212
620 352 135 89 404 282 441 318 6 5 33 28 60 50 148 122 189 159 359 325 235
230 398 416 586 670 96 129 249 355 300 443 19 32 39 66 44 75 235 400 430
853 556 1298 22 78 41 150 43 160 2 10 13 55 24 99 11 44 23 98 28 120 4 22 8
45 9 50 13 59 28 133 30 149 2 12 8 53 14 91 22 151 29 198 36 275 4 36 8 76
10 89 26 164 26 935 0 1070 -1 9 -6 45 -10 81 -11 107 -21 192 -31 244 -3 17
-7 47 -10 66 -18 146 -114 544 -188 782 -193 624 -549 1293 -965 1813 -782
979 -1837 1662 -3041 1970 -276 71 -610 129 -865 151 -44 4 -100 8 -125 11
-56 5 -697 13 -702 8z"/>
</g>
</svg>
